# xmcd CD database file
#
# Track frame offsets:
#	150
#	13317
#	31342
#	47856
#	60105
#	71657
#	89370
#	105183
#	118904
#	132724
#	147703
#	162125
#	174331
#	187148
#	207756
#	217683
#	238218
#	252387
#
# Disc length: 3784 seconds
#
# Revision: 2
# Processed by: cddbd v1.4PL0 Copyright (c) Steve Scherf et al.
# Submitted via: CDex 1.50
#
DISCID=090ec612
DTITLE=Ike and Tina Turner - Absolutely the Best
DYEAR=1998
DGENRE=R&B
TTITLE0=Nutbush City Limits
TTITLE1=I Idolize You
TTITLE2=Come Together
TTITLE3=A Fool In Love
TTITLE4=Use Me
TTITLE5=River Deep, Mountain High
TTITLE6=Living For The City
TTITLE7=It's Gonna Work Out Fine
TTITLE8=Ooh-Poo-Pah-Doo
TTITLE9=Crazy About You Baby
TTITLE10=Sugar, Sugar
TTITLE11=I Want To Take You Higher
TTITLE12=Ya Ya
TTITLE13=Knock On Wood
TTITLE14=Keep On Pushin'
TTITLE15=Never Been To Spain
TTITLE16=Twist and Shout
TTITLE17=Proud Mary
EXTD=YEAR: 1998
EXTT0=
EXTT1=
EXTT2=
EXTT3=
EXTT4=
EXTT5=
EXTT6=
EXTT7=
EXTT8=
EXTT9=
EXTT10=
EXTT11=
EXTT12=
EXTT13=
EXTT14=
EXTT15=
EXTT16=
EXTT17=
PLAYORDER=
